<mxfile host="app.diagrams.net" modified="2023-10-09T12:23:37.341Z" agent="Mozilla/5.0 (X11; Linux x86_64; rv:109.0) Gecko/20100101 Firefox/118.0" etag="n4oDNlt9oF_RdRQ9GRWI" version="22.0.4" type="device">
  <diagram name="Page-1" id="baWpT-Ok-Pdp4yDdpxRb">
    <mxGraphModel dx="1050" dy="565" grid="1" gridSize="10" guides="1" tooltips="1" connect="1" arrows="1" fold="1" page="1" pageScale="1" pageWidth="850" pageHeight="1100" math="0" shadow="0">
      <root>
        <mxCell id="0" />
        <mxCell id="1" parent="0" />
        <mxCell id="r5IkNeXnD5Oz7bqFKRrL-1" value="min_cluster" style="ellipse;whiteSpace=wrap;html=1;" parent="1" vertex="1">
          <mxGeometry x="80" y="80" width="120" height="80" as="geometry" />
        </mxCell>
        <mxCell id="r5IkNeXnD5Oz7bqFKRrL-2" value="tracer" style="ellipse;whiteSpace=wrap;html=1;" parent="1" vertex="1">
          <mxGeometry x="270" y="80" width="120" height="80" as="geometry" />
        </mxCell>
        <mxCell id="r5IkNeXnD5Oz7bqFKRrL-3" value="merger" style="ellipse;whiteSpace=wrap;html=1;" parent="1" vertex="1">
          <mxGeometry x="460" y="80" width="120" height="80" as="geometry" />
        </mxCell>
        <mxCell id="r5IkNeXnD5Oz7bqFKRrL-4" value="aligner" style="ellipse;whiteSpace=wrap;html=1;" parent="1" vertex="1">
          <mxGeometry x="650" y="80" width="120" height="80" as="geometry" />
        </mxCell>
        <mxCell id="r5IkNeXnD5Oz7bqFKRrL-5" value="magus" style="ellipse;whiteSpace=wrap;html=1;" parent="1" vertex="1">
          <mxGeometry x="650" y="220" width="120" height="80" as="geometry" />
        </mxCell>
        <mxCell id="r5IkNeXnD5Oz7bqFKRrL-9" value="" style="endArrow=classic;html=1;rounded=0;entryX=1;entryY=0.5;entryDx=0;entryDy=0;" parent="1" target="r5IkNeXnD5Oz7bqFKRrL-1" edge="1">
          <mxGeometry width="50" height="50" relative="1" as="geometry">
            <mxPoint x="270" y="120" as="sourcePoint" />
            <mxPoint x="320" y="70" as="targetPoint" />
          </mxGeometry>
        </mxCell>
        <mxCell id="r5IkNeXnD5Oz7bqFKRrL-10" value="" style="endArrow=classic;html=1;rounded=0;entryX=1;entryY=0.5;entryDx=0;entryDy=0;" parent="1" target="r5IkNeXnD5Oz7bqFKRrL-2" edge="1">
          <mxGeometry width="50" height="50" relative="1" as="geometry">
            <mxPoint x="460" y="120" as="sourcePoint" />
            <mxPoint x="510" y="70" as="targetPoint" />
          </mxGeometry>
        </mxCell>
        <mxCell id="r5IkNeXnD5Oz7bqFKRrL-11" value="" style="endArrow=classic;html=1;rounded=0;entryX=1;entryY=0.5;entryDx=0;entryDy=0;exitX=0;exitY=0.5;exitDx=0;exitDy=0;" parent="1" source="r5IkNeXnD5Oz7bqFKRrL-4" target="r5IkNeXnD5Oz7bqFKRrL-3" edge="1">
          <mxGeometry width="50" height="50" relative="1" as="geometry">
            <mxPoint x="640" y="120" as="sourcePoint" />
            <mxPoint x="690" y="70" as="targetPoint" />
          </mxGeometry>
        </mxCell>
        <mxCell id="bZmycADsyf7DgUHvcFka-1" value="" style="endArrow=classic;html=1;rounded=0;entryX=0.5;entryY=1;entryDx=0;entryDy=0;" parent="1" target="r5IkNeXnD5Oz7bqFKRrL-4" edge="1">
          <mxGeometry width="50" height="50" relative="1" as="geometry">
            <mxPoint x="710" y="220" as="sourcePoint" />
            <mxPoint x="450" y="270" as="targetPoint" />
            <Array as="points">
              <mxPoint x="710" y="190" />
            </Array>
          </mxGeometry>
        </mxCell>
        <mxCell id="bZmycADsyf7DgUHvcFka-2" value="" style="endArrow=classic;html=1;rounded=0;exitX=0.5;exitY=1;exitDx=0;exitDy=0;" parent="1" source="r5IkNeXnD5Oz7bqFKRrL-2" target="bZmycADsyf7DgUHvcFka-3" edge="1">
          <mxGeometry width="50" height="50" relative="1" as="geometry">
            <mxPoint x="400" y="320" as="sourcePoint" />
            <mxPoint x="200" y="240" as="targetPoint" />
            <Array as="points">
              <mxPoint x="330" y="260" />
            </Array>
          </mxGeometry>
        </mxCell>
        <mxCell id="bZmycADsyf7DgUHvcFka-3" value="toplogical_sort" style="ellipse;whiteSpace=wrap;html=1;" parent="1" vertex="1">
          <mxGeometry x="80" y="220" width="120" height="80" as="geometry" />
        </mxCell>
        <mxCell id="w0JONQYOIKUIbWUNWQt6-8" style="edgeStyle=orthogonalEdgeStyle;rounded=0;orthogonalLoop=1;jettySize=auto;html=1;exitX=0.5;exitY=0;exitDx=0;exitDy=0;" edge="1" parent="1" source="w0JONQYOIKUIbWUNWQt6-1" target="r5IkNeXnD5Oz7bqFKRrL-3">
          <mxGeometry relative="1" as="geometry" />
        </mxCell>
        <mxCell id="w0JONQYOIKUIbWUNWQt6-1" value="graph_builder" style="ellipse;whiteSpace=wrap;html=1;" vertex="1" parent="1">
          <mxGeometry x="440" y="240" width="120" height="80" as="geometry" />
        </mxCell>
        <mxCell id="w0JONQYOIKUIbWUNWQt6-4" value="alignment_graph" style="ellipse;whiteSpace=wrap;html=1;" vertex="1" parent="1">
          <mxGeometry x="445" y="380" width="110" height="80" as="geometry" />
        </mxCell>
        <mxCell id="w0JONQYOIKUIbWUNWQt6-7" value="" style="endArrow=classic;html=1;rounded=0;exitX=0.5;exitY=0;exitDx=0;exitDy=0;entryX=0.5;entryY=1;entryDx=0;entryDy=0;" edge="1" parent="1" source="w0JONQYOIKUIbWUNWQt6-4" target="w0JONQYOIKUIbWUNWQt6-1">
          <mxGeometry width="50" height="50" relative="1" as="geometry">
            <mxPoint x="400" y="400" as="sourcePoint" />
            <mxPoint x="450" y="350" as="targetPoint" />
          </mxGeometry>
        </mxCell>
        <mxCell id="w0JONQYOIKUIbWUNWQt6-9" value="alignment_context" style="ellipse;whiteSpace=wrap;html=1;" vertex="1" parent="1">
          <mxGeometry x="610" y="380" width="120" height="80" as="geometry" />
        </mxCell>
        <mxCell id="w0JONQYOIKUIbWUNWQt6-13" value="" style="endArrow=classic;html=1;rounded=0;exitX=1;exitY=0.5;exitDx=0;exitDy=0;entryX=1;entryY=0.5;entryDx=0;entryDy=0;" edge="1" parent="1" source="w0JONQYOIKUIbWUNWQt6-9" target="r5IkNeXnD5Oz7bqFKRrL-4">
          <mxGeometry width="50" height="50" relative="1" as="geometry">
            <mxPoint x="400" y="400" as="sourcePoint" />
            <mxPoint x="800" y="110" as="targetPoint" />
            <Array as="points">
              <mxPoint x="800" y="420" />
              <mxPoint x="800" y="120" />
            </Array>
          </mxGeometry>
        </mxCell>
      </root>
    </mxGraphModel>
  </diagram>
</mxfile>
